<svg width="86" height="57" viewBox="0 0 86 57" fill="none" xmlns="http://www.w3.org/2000/svg">
<path d="M42.9158 26.0823C50.077 26.0823 55.8822 20.2954 55.8822 13.1569C55.8822 6.01836 50.077 0.231445 42.9158 0.231445C35.7547 0.231445 29.9494 6.01836 29.9494 13.1569C29.9494 20.2954 35.7547 26.0823 42.9158 26.0823Z" fill="#0094FF"/>
<path d="M69.0836 41.5613C70.5371 40.4459 71.9246 39.2325 73.2358 37.9255C81.2548 29.9318 85.7598 19.0901 85.7598 7.78527C85.7598 4.50099 83.0889 1.83854 79.7943 1.83854C76.4996 1.83854 73.8287 4.50098 73.8287 7.78527C73.8287 15.9357 70.5807 23.7523 64.7992 29.5156C59.0177 35.2788 51.1763 38.5166 43 38.5166C34.8237 38.5166 26.9823 35.2788 21.2008 29.5156C15.4193 23.7523 12.1713 15.9357 12.1713 7.78526C12.1713 4.50098 9.50044 1.83854 6.20574 1.83854C2.91105 1.83854 0.240173 4.50098 0.240173 7.78526C0.240173 19.09 4.74521 29.9318 12.7642 37.9255C14.0463 39.2035 15.4014 40.392 16.8198 41.4869L12.0911 46.2006C9.76144 48.523 9.76144 52.2882 12.0911 54.6106C14.4208 56.9329 18.198 56.9329 20.5277 54.6106L27.608 47.5527C32.4725 49.4237 37.6852 50.41 43 50.41C48.2757 50.41 53.4508 49.4381 58.2846 47.5939C58.3796 47.7034 58.4792 47.8103 58.5835 47.9142L65.3025 54.612C67.6322 56.9343 71.4094 56.9343 73.7391 54.612C76.0688 52.2896 76.0688 48.5244 73.7391 46.202L69.0836 41.5613Z" fill="#0094FF"/>
</svg>
